<?xml version="1.0" standalone="no"?>
<!DOCTYPE svg PUBLIC "-//W3C//DTD SVG 20010904//EN"
 "http://www.w3.org/TR/2001/REC-SVG-20010904/DTD/svg10.dtd">
<svg version="1.0" xmlns="http://www.w3.org/2000/svg"
 width="630.000000pt" height="630.000000pt" viewBox="0 0 630.000000 630.000000"
 preserveAspectRatio="xMidYMid meet">
<metadata>
Created by potrace 1.11, written by Peter Selinger 2001-2013
</metadata>
<g transform="translate(0.000000,630.000000) scale(0.100000,-0.100000)"
fill="#000000" stroke="none">
<path d="M0 3150 l0 -3150 3150 0 3150 0 0 3150 0 3150 -3150 0 -3150 0 0
-3150z m2925 2525 c71 -34 132 -95 162 -162 22 -48 25 -65 21 -129 -5 -78 -13
-98 -28 -74 -6 8 -10 12 -10 8 0 -3 -3 -14 -6 -22 -5 -13 -2 -15 12 -9 16 6
17 4 7 -8 -7 -8 -10 -26 -7 -40 5 -20 4 -21 -6 -9 -10 12 -11 11 -7 -7 6 -28
-21 -153 -33 -153 -5 0 -11 8 -13 18 -4 15 -5 15 -6 0 0 -9 4 -20 9 -23 15 -9
12 -28 -3 -22 -8 3 -20 -8 -29 -28 -12 -26 -12 -32 -1 -28 7 3 13 14 13 25 0
10 4 17 9 14 5 -4 4 -28 -3 -59 -7 -29 -11 -65 -9 -80 2 -15 -1 -27 -7 -27 -5
0 -10 7 -10 15 0 8 -4 15 -10 15 -5 0 -9 -6 -7 -12 1 -7 -6 -12 -15 -10 -12 2
-16 -2 -12 -13 4 -10 0 -15 -10 -15 -16 0 -20 10 -16 44 1 11 -3 16 -9 11 -6
-3 -9 -11 -6 -16 3 -5 -1 -6 -9 -3 -9 3 -16 13 -16 21 0 8 5 11 13 8 6 -4 4 0
-7 9 -12 10 -17 23 -14 40 3 16 0 27 -10 31 -11 4 -12 8 -2 20 11 13 8 15 -14
15 -15 0 -35 4 -44 9 -11 6 -30 4 -54 -6 -41 -16 -68 -67 -68 -129 0 -22 -4
-33 -10 -29 -6 4 -8 16 -5 26 5 16 3 20 -11 17 -12 -2 -21 8 -30 32 -42 115
18 210 134 210 28 0 52 2 52 5 0 3 -11 27 -24 53 -35 69 -67 94 -123 99 -58 6
-82 -9 -92 -57 l-7 -35 -19 49 c-17 43 -17 51 -4 74 21 37 60 63 105 69 73 9
193 -48 274 -130 24 -25 37 -32 42 -24 14 23 9 157 -8 193 -9 19 -14 43 -11
54 3 11 1 20 -4 20 -5 0 -9 -5 -9 -11 0 -6 -12 4 -27 23 -16 18 -31 35 -35 36
-5 2 -8 13 -8 25 0 14 -3 18 -8 10 -6 -9 -20 -6 -57 12 -36 19 -64 25 -112 25
-35 0 -63 4 -63 9 0 8 74 43 115 54 45 12 148 -2 200 -28z m754 9 c28 -15 51
-27 49 -29 -2 -1 -27 -5 -56 -8 -119 -12 -214 -71 -270 -165 -24 -42 -27 -57
-27 -134 0 -47 3 -90 7 -93 4 -4 28 11 54 34 108 95 180 127 268 118 86 -8
126 -75 91 -152 -7 -17 -14 -23 -14 -14 -1 9 -10 28 -22 43 -35 45 -122 32
-176 -26 -19 -20 -53 -86 -53 -103 0 -3 20 -5 44 -5 44 0 111 -18 102 -28 -3
-3 4 -10 16 -16 15 -8 25 -25 31 -55 11 -57 2 -104 -28 -139 -13 -16 -21 -33
-17 -37 4 -5 1 -5 -6 -1 -7 5 -12 18 -11 29 4 31 -10 68 -34 95 -15 16 -32 22
-64 22 -54 0 -79 -23 -87 -81 -14 -94 -29 -140 -57 -179 -28 -38 -59 -53 -59
-28 0 6 -3 8 -6 5 -4 -4 -2 -13 5 -21 9 -11 5 -19 -20 -40 -51 -43 -90 -60
-100 -45 -5 8 -3 17 4 21 8 5 9 8 1 8 -7 0 -14 11 -17 25 -3 20 4 32 33 58 83
72 87 129 25 347 -91 319 -88 420 18 517 78 72 151 100 263 102 46 1 72 -5
113 -25z m-1719 -725 c0 -11 -5 -17 -10 -14 -6 4 -10 3 -9 -2 3 -20 -2 -25
-16 -13 -13 11 -14 10 -9 -4 12 -32 43 -12 58 36 4 14 9 15 36 5 36 -14 34
-32 -3 -32 -30 -1 -55 -20 -42 -32 4 -5 10 -2 13 6 4 11 6 11 13 0 7 -11 14
-8 35 13 l27 26 43 -21 c24 -11 44 -26 44 -33 0 -7 3 -19 6 -28 10 -27 -14
-18 -28 11 -13 27 -38 43 -38 25 0 -6 12 -24 26 -42 21 -24 29 -28 40 -19 12
9 18 8 28 -7 8 -10 18 -16 22 -11 4 4 3 7 -3 7 -6 0 -9 8 -6 19 3 11 -2 21
-11 24 -9 4 -16 11 -16 16 0 12 31 3 45 -13 6 -6 29 -12 53 -13 23 0 50 -4 60
-8 9 -4 34 -8 54 -10 47 -4 59 -11 51 -32 -5 -14 0 -15 35 -10 23 3 42 3 42 1
0 -3 -16 -18 -35 -35 -19 -17 -35 -37 -35 -44 0 -9 -13 -11 -47 -8 l-48 5 46
-46 c43 -41 50 -44 78 -36 27 7 31 6 31 -11 0 -15 7 -19 32 -19 17 0 40 -8 50
-17 14 -13 21 -14 30 -5 17 17 38 15 38 -3 0 -9 -9 -15 -25 -15 -14 0 -25 -4
-25 -9 0 -10 49 -5 87 10 15 5 23 5 23 -2 0 -14 -42 -69 -49 -65 -3 2 -24 7
-46 10 -22 4 -93 18 -158 31 -64 14 -120 25 -123 25 -3 0 -3 -19 0 -42 4 -24
8 -53 9 -65 1 -11 4 -20 7 -18 3 2 11 -9 18 -23 31 -72 142 -159 248 -197 44
-16 84 -32 91 -37 6 -5 13 -4 15 3 2 6 16 12 31 12 15 1 27 5 27 10 0 4 8 7
18 7 9 0 31 9 47 20 33 22 65 26 65 9 0 -5 5 -7 12 -3 9 6 9 9 0 12 -7 2 -10
8 -7 12 3 5 13 7 23 4 13 -5 14 -4 4 4 -8 5 -12 11 -10 14 5 7 -50 68 -62 68
-22 0 1 19 30 25 17 4 28 11 24 16 -3 5 -10 6 -16 3 -8 -5 -9 -1 -4 11 9 23
-6 33 -44 27 -34 -5 -36 -10 -14 -38 14 -18 15 -18 8 6 -6 22 -5 23 10 11 12
-10 14 -17 5 -27 -12 -15 -36 -6 -59 21 -12 15 -9 21 22 51 29 27 38 31 47 20
6 -7 7 -17 3 -21 -4 -5 -2 -5 4 -2 6 4 37 -18 68 -47 32 -29 65 -53 73 -52 9
0 32 16 50 35 19 18 36 31 38 29 6 -5 -12 -78 -20 -86 -4 -4 -10 -2 -12 5 -6
16 -61 -13 -97 -51 -31 -34 -35 -47 -6 -21 17 16 20 16 20 2 0 -8 2 -21 5 -29
4 -9 -21 -22 -82 -43 -49 -16 -80 -31 -70 -33 9 -2 15 -7 12 -12 -3 -4 2 -11
11 -14 8 -3 12 -2 9 4 -8 12 5 13 24 1 18 -12 5 -32 -17 -24 -14 5 -15 4 -4
-8 11 -12 16 -11 32 9 11 13 21 18 25 12 4 -6 14 -9 23 -8 10 2 16 -3 14 -11
-2 -11 0 -12 10 -3 10 8 25 8 55 1 37 -10 42 -15 51 -51 12 -47 4 -86 -10 -48
-11 31 -22 18 -14 -16 4 -14 10 -24 13 -21 15 16 37 -33 59 -131 13 -59 26
-111 27 -117 2 -5 12 17 21 50 9 33 30 103 46 155 16 52 32 110 35 128 7 33
39 60 50 42 4 -7 11 -6 19 2 7 7 56 24 109 37 81 20 93 26 82 38 -8 7 -18 12
-22 11 -20 -5 -73 14 -67 24 4 6 3 8 -3 5 -13 -8 -73 14 -73 28 0 5 -5 3 -10
-5 -6 -9 -10 -11 -10 -3 0 7 -6 10 -14 7 -8 -3 -23 -1 -33 6 -15 10 -14 10 10
5 36 -7 35 6 -3 28 -39 23 -57 56 -39 68 11 7 11 9 -3 9 -9 0 -21 13 -27 31
-15 44 -14 49 10 49 18 0 21 -5 17 -30 -4 -29 6 -42 14 -18 5 14 68 -49 68
-67 0 -7 9 -15 20 -18 15 -4 20 0 20 15 0 10 -4 16 -10 13 -16 -10 -12 11 4
25 11 8 20 9 33 1 10 -6 14 -11 9 -11 -5 0 -3 -7 4 -15 11 -13 10 -18 -8 -31
-25 -18 -29 -34 -7 -34 18 0 20 -16 3 -24 -7 -3 2 -3 21 0 18 3 43 1 55 -4
120 -60 154 -63 252 -18 59 28 80 33 90 25 9 -8 14 -8 14 -1 0 6 -6 12 -12 14
-8 3 -3 10 12 18 86 44 154 137 166 224 6 41 5 46 -12 46 -16 0 -236 -40 -300
-55 -17 -4 -28 5 -48 36 l-27 40 35 -7 c32 -5 36 -4 36 15 0 18 3 19 26 11 37
-14 54 -12 54 6 0 13 7 15 40 9 33 -6 40 -4 40 9 0 12 6 15 23 10 18 -4 35 4
70 33 25 21 46 41 46 44 1 4 -13 9 -30 13 -22 4 -46 -2 -90 -25 -59 -29 -61
-29 -54 -8 l7 22 -36 -21 c-47 -28 -60 -28 -46 -1 7 11 10 23 7 25 -3 3 -40
-11 -82 -31 -43 -19 -79 -34 -80 -33 -9 10 -95 157 -95 162 0 3 51 6 113 6 61
0 182 5 267 11 177 13 255 34 386 104 70 37 142 56 127 32 -8 -13 27 -19 42
-7 11 9 15 9 15 1 0 -7 4 -10 9 -7 12 8 41 -3 41 -15 0 -4 -36 -26 -80 -48
-120 -61 -120 -61 -119 -101 2 -84 3 -84 104 -34 50 25 104 47 120 48 17 1 30
8 30 15 0 6 18 20 41 30 l41 18 49 -43 49 -43 -222 -107 -221 -107 -15 -59
c-8 -32 -13 -58 -11 -58 3 0 45 20 94 45 82 41 90 43 90 25 0 -11 -4 -20 -10
-20 -22 0 -8 -26 15 -28 14 -1 25 2 25 8 0 5 9 7 21 5 20 -4 20 -4 -1 30 -12
19 -17 35 -12 35 6 0 17 6 24 14 24 24 118 67 130 60 6 -4 8 -3 5 3 -5 8 90
63 109 63 3 0 4 -10 2 -22 -2 -13 -9 -22 -15 -21 -6 1 -9 -6 -6 -15 5 -21 -32
-72 -53 -72 -8 0 -14 -6 -14 -13 0 -14 -98 -74 -112 -69 -5 1 -8 -2 -8 -7 0
-5 -9 -7 -20 -4 -30 8 -70 -5 -64 -21 7 -18 -25 -49 -42 -42 -8 3 -14 0 -14
-7 0 -7 -9 -18 -20 -25 -16 -10 -20 -10 -20 1 0 7 5 18 12 25 6 6 8 15 4 19
-4 4 -11 1 -15 -6 -5 -7 -13 -11 -18 -8 -11 7 -11 -35 0 -44 4 -3 -12 -16 -35
-29 -74 -41 -191 -121 -248 -170 -30 -26 -66 -51 -80 -55 -14 -4 -31 -12 -38
-18 -12 -9 -11 -12 1 -17 12 -4 8 -14 -21 -48 l-37 -43 -100 62 c-55 34 -102
64 -104 65 -2 2 2 12 10 21 13 16 12 17 -3 4 -10 -7 -24 -11 -33 -8 -11 5
-132 -28 -213 -58 -16 -6 -5 -23 49 -82 18 -20 46 -51 61 -68 l27 -32 -43 -32
c-25 -17 -47 -31 -49 -31 -3 0 -38 41 -78 90 -40 50 -76 90 -80 90 -3 0 -35
-84 -69 -186 l-63 -187 7 -868 c6 -747 5 -869 -7 -869 -8 0 -17 9 -20 20 -3
11 -12 20 -21 20 -9 0 -17 6 -18 13 0 6 -2 17 -3 22 -2 6 -3 34 -4 64 l-1 54
-122 -6 c-68 -3 -168 -16 -223 -27 -121 -26 -379 -110 -368 -120 11 -10 195
-92 198 -88 2 2 18 39 36 83 18 44 36 84 40 88 6 8 149 -79 149 -90 0 -2 -5
-1 -11 3 -6 3 -15 0 -20 -7 -7 -11 -12 -10 -27 7 -9 11 -29 27 -43 36 l-26 16
-27 -55 c-15 -30 -26 -57 -24 -58 2 -2 45 6 95 18 l93 20 51 79 52 78 26 -16
c88 -57 101 -68 94 -75 -11 -10 -117 -29 -123 -22 -3 3 1 8 8 10 6 3 12 14 12
24 0 11 5 17 10 14 6 -4 8 -11 5 -16 -7 -11 2 -11 30 0 18 7 17 9 -12 24 -18
10 -34 17 -36 17 -6 0 -67 -94 -67 -102 0 -4 26 1 57 9 45 12 62 12 76 3 11
-6 16 -7 13 -2 -12 20 26 21 47 1 12 -11 18 -19 12 -18 -9 3 -88 -6 -154 -17
-50 -8 -271 -77 -266 -83 10 -10 360 -198 363 -195 2 1 -31 48 -73 104 -42 56
-75 104 -72 106 10 10 119 35 125 29 3 -3 30 -61 59 -128 l52 -122 1 70 c1 39
1 107 0 153 -1 52 3 82 9 82 6 0 11 -5 11 -10 0 -6 11 -21 25 -34 23 -21 25
-30 27 -140 l3 -116 57 127 c59 131 62 134 108 116 8 -3 30 -5 48 -4 21 2 32
-2 32 -11 -1 -7 -27 -49 -59 -93 -33 -44 -58 -81 -57 -83 2 -1 27 11 56 27 30
16 58 27 62 25 4 -3 8 -1 8 4 0 10 199 112 217 112 6 0 13 3 15 8 2 4 25 17
52 30 35 17 51 20 56 12 4 -7 11 -12 16 -13 5 -1 8 -8 8 -14 -1 -7 1 -11 5 -9
3 2 23 11 43 21 l37 17 -20 21 c-18 19 -18 22 -4 25 9 2 23 -2 32 -10 12 -9
15 -9 9 0 -4 7 -1 12 8 12 9 0 16 4 16 10 0 5 -8 7 -17 3 -42 -15 5 15 90 57
50 25 92 50 94 55 3 11 -191 89 -249 100 l-38 7 0 77 c0 42 -3 86 -6 98 -4 14
-2 23 5 23 6 0 11 -7 11 -15 0 -8 7 -15 15 -15 12 0 13 4 3 25 -10 23 -20 29
-41 26 -4 0 -7 7 -7 17 0 10 -5 23 -12 30 -15 15 -3 27 34 36 17 4 28 1 31 -7
4 -8 6 -7 6 3 1 8 32 31 69 51 44 23 78 50 101 80 35 46 59 64 48 36 -3 -9 -2
-19 3 -22 6 -4 10 -1 10 5 0 7 8 9 19 5 18 -5 36 16 24 29 -13 13 -25 5 -19
-11 5 -16 5 -16 -6 -2 -7 9 -20 18 -28 21 -10 4 -3 9 18 13 19 5 32 14 32 23
0 13 -3 13 -12 4 -16 -16 -28 -15 -28 1 0 24 33 45 55 37 11 -5 32 -9 48 -9
29 -1 33 -10 18 -39 -5 -9 -15 -32 -21 -49 -7 -18 -33 -51 -59 -73 -66 -59
-71 -62 -71 -50 0 5 -4 10 -10 10 -5 0 -7 -7 -4 -15 4 -11 -9 -22 -47 -40
l-53 -24 80 -3 79 -3 19 -38 c10 -21 16 -40 14 -42 -3 -3 -53 1 -112 7 -76 9
-105 16 -102 24 4 10 -2 10 -25 2 -16 -5 -29 -13 -29 -16 1 -21 24 -31 105
-45 137 -23 190 -39 190 -59 0 -9 4 -20 8 -24 4 -4 7 -18 7 -31 l0 -23 -49 20
c-51 20 -139 43 -203 54 -35 6 -38 5 -38 -17 0 -22 6 -25 73 -36 40 -6 111
-25 157 -41 80 -28 86 -29 98 -12 20 26 68 122 82 165 10 31 14 36 26 26 8 -7
17 -9 21 -5 3 3 1 6 -5 6 -7 0 -12 5 -12 10 0 6 9 10 20 10 27 0 25 18 -2 25
-21 5 -23 11 -20 55 2 28 8 50 14 50 6 0 8 -6 5 -13 -3 -7 3 -13 14 -14 12 -1
16 3 12 13 -3 8 -1 14 5 14 12 0 31 50 25 68 -7 19 -26 14 -21 -6 7 -24 -14
-53 -31 -43 -18 12 -17 451 1 463 10 6 10 8 0 8 -10 0 -12 100 -11 503 0 276
-2 513 -6 527 -16 62 -126 86 -205 46 -46 -24 -110 -86 -110 -107 0 -30 39
-69 71 -69 40 0 73 34 59 60 -12 23 -16 24 -59 9 -42 -15 -50 -5 -21 26 35 37
83 34 126 -9 19 -19 34 -38 34 -43 0 -23 -42 -71 -81 -92 l-45 -24 -92 63
c-50 34 -94 66 -98 71 -3 5 8 23 25 39 16 17 27 30 23 30 -15 0 53 60 153 135
150 112 192 138 210 131 8 -3 15 -1 15 5 0 6 4 7 10 4 6 -3 10 0 10 8 0 15 56
44 66 34 3 -3 14 3 25 14 10 10 28 19 40 19 11 0 32 9 46 20 30 24 45 26 37 5
-4 -10 0 -15 11 -15 9 0 13 -5 9 -11 -4 -7 0 -9 12 -5 11 3 31 0 45 -8 24 -12
26 -12 22 5 -3 10 -9 17 -13 14 -5 -3 -12 -1 -15 5 -4 6 -15 8 -25 5 -21 -7
-32 5 -22 22 4 6 32 21 62 33 l55 22 18 -23 c18 -23 18 -23 -5 -33 -22 -9 -21
-10 12 -15 l35 -6 -22 -16 c-13 -9 -20 -19 -16 -22 3 -4 -1 -7 -10 -7 -10 0
-17 -6 -17 -13 0 -13 -64 -43 -86 -41 -12 1 -12 -21 0 -48 6 -14 20 -18 56
-18 28 0 50 5 52 12 2 6 19 11 36 10 18 0 30 3 27 8 -4 7 17 20 34 20 8 0 41
-54 41 -67 0 -12 -67 -36 -80 -28 -5 3 -18 -3 -29 -14 -11 -11 -16 -23 -12
-25 5 -3 11 -15 14 -26 3 -11 2 -18 -3 -15 -4 3 -11 -6 -14 -20 l-6 -25 -58
46 c-31 25 -66 53 -78 62 -11 9 -25 17 -32 18 -27 2 -31 5 -37 34 -4 17 -11
28 -16 24 -5 -3 -5 -13 1 -25 8 -13 7 -19 0 -19 -6 0 -13 7 -16 15 -5 11 -10
13 -19 5 -7 -6 -39 -10 -71 -9 -33 1 -72 -4 -89 -11 -24 -9 -28 -9 -17 1 16
17 15 44 -3 59 -18 15 -20 -1 -2 -19 10 -11 10 -14 0 -18 -7 -3 -13 -11 -13
-18 0 -8 -18 -22 -41 -32 l-41 -18 101 0 c89 0 103 -2 122 -21 18 -18 20 -29
14 -63 -4 -22 -11 -41 -16 -41 -6 0 -17 -16 -25 -35 -9 -23 -19 -33 -27 -29
-7 4 -2 -3 11 -15 24 -24 52 -25 60 -3 3 9 -3 11 -24 6 -19 -5 -25 -4 -20 5 4
6 12 8 18 5 7 -5 9 -2 5 8 -6 16 25 32 37 20 15 -14 4 -62 -16 -77 l-23 -17
23 7 22 6 0 -372 c-1 -242 -4 -379 -11 -392 -8 -14 -8 -18 0 -13 6 4 11 3 11
-1 0 -5 -12 -14 -27 -20 l-28 -12 28 6 28 5 -1 -286 c-1 -169 -5 -284 -11
-281 -5 4 -6 -18 -3 -52 8 -73 -24 -211 -67 -297 -58 -114 -179 -246 -213
-233 -9 4 -13 1 -11 -6 6 -17 -79 -59 -93 -45 -13 13 -33 2 -27 -15 3 -7 -13
-20 -38 -31 -23 -11 -50 -23 -59 -28 -13 -6 -16 -4 -15 12 1 14 6 19 17 15 11
-5 12 -3 3 6 -13 13 -37 3 -28 -12 4 -5 1 -9 -4 -9 -6 0 -11 6 -11 13 0 8 -7
14 -15 14 -8 0 -15 -4 -15 -9 0 -4 -9 -8 -20 -8 -13 0 -22 -9 -26 -25 -3 -14
-10 -25 -16 -25 -5 0 -7 -4 -3 -10 3 -5 13 -7 23 -4 9 2 -16 -12 -57 -31 -41
-20 -81 -33 -88 -31 -8 3 -12 2 -9 -2 3 -5 -61 -35 -142 -67 -193 -76 -235
-98 -293 -152 l-49 -46 0 -118 c0 -76 -4 -119 -10 -119 -7 0 -6 -5 1 -13 7 -7
27 -11 47 -9 l35 5 -36 -45 c-20 -25 -37 -54 -37 -65 0 -13 29 -38 96 -83 96
-63 97 -64 75 -81 -12 -10 -22 -20 -21 -23 0 -4 0 -9 0 -13 0 -13 -63 -78 -92
-98 -34 -21 -34 -18 -3 47 l25 52 -24 25 c-29 29 -26 35 -56 -104 -12 -55 -24
-107 -27 -115 -3 -8 -7 -28 -9 -45 -5 -34 -22 -57 -18 -23 1 13 3 24 3 26 3 8
-2 17 -10 15 -5 -2 -7 12 -5 30 2 17 -2 39 -9 47 -6 8 -20 56 -30 105 -10 50
-19 92 -21 94 -6 7 -43 -44 -44 -60 0 -9 7 -33 16 -54 8 -20 13 -39 11 -41 -7
-7 -88 58 -108 86 -40 57 -37 62 71 133 55 37 100 74 100 82 0 8 5 15 10 15 6
0 10 5 10 11 0 6 -5 9 -12 7 -11 -4 -39 19 -68 55 -13 18 -12 19 20 15 l33 -3
-1 135 -2 135 -49 45 c-28 25 -78 59 -113 76 -63 32 -350 152 -378 159 -21 4
-119 44 -150 59 -14 7 -95 46 -180 87 -133 64 -163 82 -216 136 -100 101 -160
242 -178 418 -3 28 -8 399 -12 825 -7 849 -9 827 50 866 22 14 43 16 116 12
50 -3 90 -4 90 -2 0 2 -33 13 -72 25 -40 11 -80 23 -88 26 -8 3 -42 5 -75 4
-72 -2 -150 -37 -246 -109 -97 -74 -121 -110 -137 -212 -7 -47 -13 -98 -13
-115 1 -30 -34 -429 -44 -514 l-6 -44 48 38 c26 22 65 54 86 72 20 18 42 33
49 33 8 0 9 26 5 95 -4 60 -3 96 4 100 6 4 6 11 1 18 -5 7 -12 84 -16 171 l-6
160 -33 28 -32 28 65 62 c62 58 180 142 188 133 3 -2 -1 -26 -8 -52 -17 -64
-25 -335 -25 -870 0 -436 0 -443 -20 -444 -18 0 -18 -1 3 -9 21 -9 22 -14 22
-140 0 -178 16 -305 51 -413 55 -170 130 -261 310 -379 60 -40 109 -75 109
-79 0 -4 -7 -15 -16 -23 -8 -9 -11 -16 -5 -16 5 0 13 6 17 12 6 9 10 5 15 -12
l6 -25 13 28 c7 15 17 27 21 27 8 0 5 -31 -6 -53 -4 -6 3 -1 14 12 16 17 27
22 46 17 16 -4 23 -11 19 -18 -5 -8 -1 -9 11 -4 16 6 195 -37 220 -52 6 -4 12
-7 15 -7 77 -11 271 -75 264 -86 -4 -8 4 -9 26 -4 25 5 31 4 25 -5 -5 -9 -4
-11 4 -6 6 4 34 0 61 -9 48 -16 50 -18 50 -53 0 -29 8 -45 42 -79 41 -42 43
-46 41 -104 -1 -68 -4 -73 -31 -65 -13 4 -22 19 -26 41 -14 73 -75 88 -131 32
-52 -52 -59 -97 -40 -247 l7 -55 -43 41 c-24 23 -69 59 -99 81 -64 46 -246
153 -261 153 -5 0 -12 7 -16 16 -3 8 -11 13 -18 10 -29 -11 -152 62 -223 132
-66 66 -90 101 -59 89 6 -2 49 -12 94 -22 78 -17 84 -20 123 -66 22 -26 70
-67 105 -91 42 -27 65 -49 65 -61 0 -16 3 -17 15 -7 12 10 27 5 80 -24 36 -19
65 -33 65 -31 0 16 -78 77 -135 105 -37 19 -71 42 -75 54 -5 12 -9 15 -9 8 -1
-18 -56 21 -78 54 -21 32 -7 46 17 17 14 -18 19 -20 23 -8 6 14 58 12 97 -2 8
-4 20 -5 26 -4 7 1 23 -18 38 -43 14 -24 47 -61 73 -83 57 -47 79 -61 69 -44
-4 6 -2 19 6 28 11 14 11 16 -1 8 -11 -6 -28 7 -63 46 -55 62 -61 82 -20 75
15 -2 46 -5 69 -5 40 -1 42 -3 49 -36 4 -22 2 -41 -6 -50 -9 -10 -9 -15 -1
-15 6 0 11 -12 11 -26 0 -26 1 -25 40 18 46 53 114 79 161 61 23 -9 27 -8 22
4 -12 30 -221 114 -354 142 -30 6 -61 16 -69 21 -13 8 -13 11 3 22 16 12 16
14 -4 26 -12 8 -18 9 -14 3 3 -6 -1 -19 -10 -28 -16 -15 -25 -14 -134 17 -252
71 -419 152 -533 259 -62 57 -66 59 -178 86 -63 15 -117 29 -119 31 -2 2 16
51 39 109 l42 106 -32 112 c-35 123 -32 120 -154 207 -42 30 -76 57 -76 61 0
3 42 37 94 75 l94 69 4 110 c2 60 1 127 -1 148 -3 39 9 29 -214 182 -20 14
-35 191 -15 179 10 -6 10 -5 1 7 -16 20 -25 179 -9 179 8 0 7 3 -1 8 -8 5 -14
48 -17 124 -5 100 -3 116 9 111 8 -3 15 0 15 6 0 6 -9 11 -20 11 -18 0 -20 7
-20 55 0 34 4 55 11 55 8 0 8 4 2 13 -6 6 -13 24 -17 40 -6 26 -5 27 36 28 24
1 46 1 51 0 4 -1 13 11 20 26 9 21 9 27 -1 31 -7 2 -9 9 -6 14 5 7 2 8 -7 2
-12 -7 -59 -7 -67 0 -1 2 3 17 9 36 l12 32 58 -6 c55 -7 61 -5 86 20 l27 27
-49 22 c-32 13 -45 24 -37 29 7 4 12 12 12 18 0 6 -8 4 -18 -5 -18 -16 -42
-23 -42 -11 0 3 10 20 23 38 l22 34 82 -26 81 -25 32 23 33 23 -44 23 c-25 12
-70 30 -102 39 l-57 16 15 27 c17 32 33 50 61 75 20 17 25 16 130 -26 189 -76
337 -158 507 -278 98 -70 190 -171 171 -188 -12 -11 -155 -115 -171 -125 -17
-9 -87 28 -112 60 -29 37 -26 55 13 93 26 26 40 32 66 29 20 -2 38 -11 47 -24
13 -20 12 -21 -29 -20 -39 1 -43 -1 -46 -26 -7 -64 92 -70 118 -8 16 38 6 63
-35 95 -100 76 -220 73 -261 -6 -24 -48 -12 -89 36 -119 22 -14 40 -30 40 -37
0 -7 7 -13 16 -13 9 0 39 -13 66 -30 26 -16 52 -30 56 -30 5 0 58 34 118 75
60 42 114 73 121 70 46 -17 -37 117 -100 164 -16 11 -16 15 -6 23 11 8 11 9
-1 5 -8 -2 -37 14 -65 37 -74 62 -110 87 -212 150 -51 32 -93 62 -93 67 0 6
-4 8 -9 4 -15 -8 -227 114 -280 161 -47 43 -101 128 -88 140 9 9 346 -161 367
-185 9 -10 21 -16 28 -13 6 2 27 -6 46 -17 18 -12 38 -21 43 -21 6 0 3 25 -6
59 l-15 59 -166 82 c-91 45 -176 89 -190 98 -14 9 -27 17 -30 17 -3 1 -16 5
-30 9 -24 9 -24 9 24 51 l48 43 70 -33 c39 -19 78 -41 87 -50 10 -8 20 -13 23
-10 3 3 40 -10 82 -29 l76 -35 0 62 0 62 -48 23 c-26 12 -74 36 -107 53 -56
30 -58 32 -36 41 14 5 31 6 38 3 8 -2 11 -1 8 4 -5 9 15 18 48 20 11 1 17 -6
17 -20z m940 -134 c0 -5 -5 -3 -10 5 -5 8 -10 20 -10 25 0 6 5 3 10 -5 5 -8
10 -19 10 -25z m100 21 c0 -2 -7 -7 -16 -10 -8 -3 -12 -2 -9 4 6 10 25 14 25
6z m-387 -26 c36 1 57 -3 57 -10 0 -7 6 -8 19 0 25 13 151 11 151 -2 0 -10
-89 -158 -95 -158 -16 0 -65 25 -65 33 0 6 -3 8 -6 4 -8 -7 -64 13 -64 23 0 5
8 14 18 19 9 6 13 11 9 11 -17 0 -58 -38 -47 -45 5 -3 10 -13 10 -22 0 -11 -4
-13 -12 -6 -7 5 -26 15 -41 21 -26 11 -28 11 -22 -8 6 -20 6 -20 -39 2 -28 13
-44 27 -43 37 1 9 5 16 7 16 3 0 19 13 37 29 34 31 34 42 -1 56 -15 7 -8 8 24
4 25 -3 71 -5 103 -4z m368 -37 c12 -15 12 -16 -4 -10 -26 10 -41 -1 -26 -19
9 -11 8 -14 -4 -14 -18 0 -17 21 2 44 16 20 16 20 32 -1z m42 -34 c-9 -9 -12
-7 -10 9 1 14 5 18 11 12 7 -7 6 -14 -1 -21z m-38 -37 c-8 -8 -25 10 -19 20 4
6 9 5 15 -3 4 -7 6 -15 4 -17z m98 6 c6 -8 7 -23 4 -32 -5 -14 -10 -14 -34 -3
-21 9 -23 13 -9 15 12 3 16 10 13 23 -6 23 11 21 26 -3z m-68 -39 c11 -17 2
-18 -19 -3 -17 12 -17 14 -4 14 9 0 20 -5 23 -11z m150 -31 c0 -6 6 -13 13
-15 6 -3 12 2 12 10 0 8 7 17 14 20 10 4 13 1 9 -9 -3 -8 0 -20 6 -28 8 -10 6
-18 -8 -34 -22 -27 -33 -28 -24 -4 6 15 5 15 -10 4 -9 -8 -20 -11 -26 -8 -5 3
-8 -2 -7 -11 4 -26 -27 -76 -54 -90 -30 -15 -35 -11 -20 17 7 14 17 19 27 16
13 -5 14 -4 4 8 -7 8 -9 25 -5 40 4 16 2 26 -5 26 -21 0 -11 15 20 29 16 7 28
16 25 19 -3 3 -1 11 6 19 11 14 23 9 23 -9z m-377 -26 c29 -10 50 -22 48 -28
-5 -13 13 -34 28 -34 5 0 1 7 -10 15 -12 9 -14 14 -6 15 7 0 10 5 7 10 -3 6 2
10 12 10 11 0 23 -12 30 -30 l11 -30 -55 0 c-44 0 -63 5 -87 24 -31 23 -109
54 -144 58 -9 0 3 4 28 8 50 7 61 6 138 -18z m927 19 c29 -7 29 -8 -15 -15
-66 -11 -141 -36 -135 -46 18 -29 -69 -35 -229 -16 -74 10 -83 19 -42 41 31
17 41 18 99 7 86 -16 111 -15 155 5 69 31 109 37 167 24z m-605 -5 c0 -3 -4
-8 -10 -11 -5 -3 -10 -1 -10 4 0 6 5 11 10 11 6 0 10 -2 10 -4z m-80 -38 c0
-6 -6 -8 -13 -5 -13 5 -39 -18 -35 -30 2 -5 -13 -9 -32 -11 -34 -3 -34 -3 -15
13 11 9 15 14 9 11 -14 -7 -40 21 -30 31 4 4 11 1 17 -7 6 -11 11 -12 17 -4
14 22 82 24 82 2z m-10 -22 c0 -3 -4 -8 -10 -11 -5 -3 -10 -1 -10 4 0 6 5 11
10 11 6 0 10 -2 10 -4z m215 -17 c-4 -5 1 -12 9 -15 9 -3 16 -15 16 -26 0 -11
7 -26 15 -34 8 -9 15 -25 15 -37 0 -24 -15 -14 -34 25 -6 12 -22 24 -34 26
-12 2 -22 8 -22 13 0 6 5 7 11 3 7 -4 10 4 9 22 -3 41 -1 46 10 39 6 -4 8 -11
5 -16z m-102 -79 c-7 -28 -30 -43 -50 -35 -15 6 -15 8 -3 13 8 2 23 13 33 23
23 24 26 24 20 -1z m364 3 c7 -10 18 -27 25 -38 10 -18 10 -19 -6 -6 -15 13
-19 13 -26 0 -7 -10 -3 -16 12 -22 l22 -8 -21 -14 c-19 -13 -25 -13 -49 0 -18
9 -30 11 -34 4 -4 -5 -14 -7 -23 -3 -14 5 -8 15 31 54 26 26 49 48 51 49 2 0
10 -7 18 -16z m-27 -110 c7 -6 -23 -23 -40 -22 -11 0 -11 2 -2 6 10 4 10 8 0
20 -11 14 -10 15 12 8 14 -4 27 -9 30 -12z m1345 -31 c-2 -3 -12 -1 -22 2 -15
6 -15 9 -3 16 13 8 35 -8 25 -18z m-1755 -76 c-7 -9 -16 -16 -20 -16 -15 0
-20 32 -9 47 11 12 14 12 27 -1 13 -12 13 -18 2 -30z m1572 -166 c47 -22 168
-138 168 -160 0 -7 -9 -14 -20 -17 -38 -10 -48 -74 -54 -348 l-5 -210 80 -65
c43 -36 84 -64 89 -63 6 2 10 -5 10 -14 0 -9 3 -13 7 -10 3 4 1 17 -5 30 -16
34 -25 287 -10 287 11 0 11 2 0 8 -10 7 -39 195 -40 262 -1 23 -9 71 -22 120
-7 25 -12 53 -13 63 -1 9 -7 17 -14 17 -13 0 -30 47 -20 56 2 3 14 6 26 7 11
1 21 4 21 8 0 10 49 29 75 29 32 0 32 -13 0 -30 -13 -7 -22 -17 -19 -22 3 -4
-9 -21 -26 -37 -31 -28 -31 -28 -7 -24 18 4 29 -1 38 -15 11 -17 20 -20 51
-16 l38 6 0 -39 c0 -45 -29 -468 -35 -523 -2 -14 -4 -29 -4 -33 -1 -5 -5 -5
-11 -2 -6 4 -10 -7 -10 -27 0 -23 3 -29 9 -19 7 10 9 7 8 -12 -1 -15 -8 -27
-14 -27 -7 0 -13 -4 -13 -10 0 -5 5 -10 10 -10 6 0 10 -23 10 -51 0 -42 -3
-52 -20 -56 -11 -3 -20 -9 -20 -14 0 -5 -7 -9 -16 -9 -8 0 -12 -4 -9 -10 3 -6
-1 -7 -9 -4 -11 4 -16 0 -16 -10 0 -10 -14 -23 -33 -31 -56 -23 -94 -70 -88
-108 1 -4 -4 -17 -10 -28 -7 -14 -7 -24 0 -33 6 -7 8 -16 5 -19 -3 -3 -6 -45
-5 -93 1 -75 -1 -85 -13 -74 -9 6 -21 8 -27 4 -7 -4 -27 -9 -45 -11 l-34 -3 0
385 c0 301 3 385 13 385 9 0 9 2 -1 9 -10 6 -12 63 -10 264 2 142 1 258 -2
260 -3 1 -12 30 -21 63 -14 56 -14 61 0 54 9 -4 37 -17 63 -30z m318 -50 c0
-11 -6 -20 -14 -20 -9 0 -14 9 -13 20 1 11 7 20 14 20 7 0 13 -9 13 -20z
m-1390 -386 l115 -37 2 -91 c1 -52 9 -110 17 -135 9 -24 16 -47 16 -51 0 -4
-26 -17 -57 -29 -137 -50 -197 -104 -244 -216 -13 -30 -27 -55 -32 -55 -5 0
-33 7 -63 16 l-54 16 27 50 c46 85 97 133 184 176 l79 40 -83 7 c-84 7 -84 7
-101 41 -9 19 -16 37 -16 41 0 6 142 -3 218 -13 37 -6 42 -4 42 14 0 23 -18
32 -65 32 -30 0 -154 22 -197 36 -16 5 -37 69 -26 79 3 3 42 -6 89 -20 46 -14
110 -28 141 -31 55 -6 57 -6 51 15 -3 12 -16 24 -32 27 -87 20 -153 37 -207
55 -66 21 -74 33 -74 115 l0 33 78 -39 c42 -21 129 -56 192 -76z m660 84 c0
-13 -3 -40 -6 -60 l-6 -36 -112 -31 c-61 -17 -129 -34 -151 -39 -33 -6 -41
-12 -43 -34 -2 -19 2 -27 17 -31 12 -3 21 -1 21 4 0 5 11 9 25 9 14 0 67 14
118 30 52 17 97 30 102 30 8 0 -3 -71 -14 -82 -5 -6 -151 -38 -173 -38 -5 0
-8 9 -8 20 0 11 -4 20 -10 20 -5 0 -10 -6 -10 -14 0 -8 -5 -18 -12 -22 -7 -4
-8 -3 -4 4 4 7 2 12 -3 12 -6 0 -11 -4 -11 -10 0 -5 -8 -10 -19 -10 -24 0 -36
-39 -13 -41 31 -3 127 1 190 7 l63 6 -21 -41 -20 -41 -88 0 -87 0 56 -23 c106
-44 216 -154 243 -243 6 -19 1 -22 -50 -33 -32 -6 -60 -11 -64 -11 -4 0 -17
28 -30 62 -39 107 -128 181 -261 217 l-45 13 19 56 c11 31 22 95 24 142 l6 86
116 38 c64 21 145 53 181 72 78 40 80 40 80 12z m-456 -483 c-4 -9 0 -12 13
-9 12 4 33 -10 65 -44 l47 -49 -62 -61 c-35 -34 -67 -62 -73 -62 -13 0 -124
113 -124 126 0 16 120 125 131 119 4 -3 6 -12 3 -20z m-191 -107 c34 2 37 0
37 -27 0 -43 130 -219 152 -205 25 16 128 168 128 190 0 28 5 30 80 38 l55 6
-3 -63 -4 -62 -36 -3 c-42 -3 -66 -17 -146 -86 l-59 -50 49 -44 c58 -53 141
-102 172 -102 16 0 22 -6 22 -23 0 -30 -10 -40 -27 -26 -9 8 -13 8 -13 1 0 -6
9 -13 19 -17 11 -3 21 -17 23 -33 4 -26 2 -27 -32 -24 -19 3 -40 8 -46 13 -6
5 -18 7 -27 4 -18 -8 -29 48 -13 66 8 8 7 10 -4 7 -9 -3 -25 10 -41 31 -14 20
-44 55 -65 79 l-39 43 -55 -67 c-64 -78 -89 -120 -90 -150 0 -19 -8 -22 -62
-27 -35 -3 -64 -5 -64 -4 -1 1 1 29 4 62 7 60 7 60 44 66 40 6 86 35 161 102
l48 42 -57 45 c-82 64 -122 88 -164 95 -34 6 -36 8 -32 40 2 19 -1 48 -7 65
l-10 31 32 -7 c17 -4 49 -6 70 -6z m-10 -225 l47 -49 -37 -35 c-21 -19 -53
-48 -71 -64 l-32 -29 -65 64 -64 63 62 67 62 68 25 -18 c14 -10 46 -40 73 -67z
m537 22 l64 -65 -49 -50 -49 -50 -25 23 c-23 20 -24 21 -16 2 22 -58 19 -61
-21 -26 -21 19 -55 49 -74 68 l-35 32 65 66 c35 36 67 65 70 65 3 0 35 -29 70
-65z m-691 -270 c34 -81 75 -131 136 -166 31 -18 52 -35 48 -41 -3 -7 -1 -8 6
-4 16 10 73 -3 65 -16 -4 -6 1 -8 15 -3 12 3 21 2 21 -4 0 -5 -10 -12 -22 -14
l-23 -4 23 -8 c15 -5 21 -13 18 -22 -3 -8 -6 -19 -6 -24 0 -5 -9 -4 -20 3 -16
11 -22 9 -34 -7 -18 -26 -11 -37 20 -29 18 5 24 2 24 -9 0 -9 -5 -19 -12 -23
-7 -5 -8 -3 -3 6 5 8 3 11 -6 8 -20 -7 -24 -38 -5 -38 22 0 23 -102 1 -120
-12 -10 -15 -10 -15 0 0 7 -8 10 -19 7 -10 -2 -26 0 -35 5 -11 6 -21 6 -29 0
-7 -6 -29 -9 -50 -8 -30 1 -35 -1 -22 -10 19 -14 20 -25 2 -18 -8 3 -20 -2
-27 -11 -8 -10 -9 -15 -1 -15 20 0 12 -16 -14 -28 -15 -7 -26 -8 -30 -1 -4 5
-11 7 -16 3 -5 -3 -7 -9 -4 -14 6 -10 -50 -41 -81 -45 -17 -2 -21 3 -22 31 -1
26 3 34 16 34 14 0 14 2 3 9 -8 5 -12 15 -9 23 7 17 97 41 124 32 15 -4 16 -4
5 4 -11 8 -4 13 30 22 154 41 157 42 157 65 0 24 17 26 -181 -21 -60 -14 -111
-23 -113 -21 -3 3 -1 20 4 38 7 28 16 37 54 51 61 23 178 38 179 24 0 -6 3 -5
6 2 2 6 13 12 22 12 20 0 49 46 37 57 -4 5 -13 0 -20 -10 -10 -13 -29 -17 -82
-18 -38 0 -91 -4 -119 -9 -27 -4 -52 -6 -54 -4 -2 2 3 21 10 41 l15 38 89 5
90 5 -65 31 c-59 29 -148 93 -107 78 9 -3 17 -2 17 4 0 5 -14 12 -30 16 -23 4
-39 20 -70 67 -22 34 -40 65 -40 69 0 6 69 23 116 29 6 0 20 -24 33 -54z m428
-28 c49 -52 51 -56 34 -71 -10 -9 -21 -13 -24 -9 -4 3 -7 0 -7 -8 0 -8 -18
-32 -40 -54 l-39 -39 -68 67 -67 67 65 59 c46 43 68 57 79 51 8 -5 38 -33 67
-63z m854 24 c15 -12 34 -17 49 -14 19 3 36 -5 67 -35 24 -21 54 -44 68 -50
14 -6 25 -15 25 -19 -1 -11 -111 -86 -127 -86 -7 0 -13 -6 -13 -12 0 -6 -11
-18 -25 -25 -14 -7 -25 -18 -25 -24 0 -10 -26 -100 -65 -223 -13 -39 -12 -45
16 -103 16 -34 29 -69 29 -79 0 -9 10 -25 23 -36 l22 -20 -80 -13 c-44 -7 -94
-15 -111 -18 -18 -2 -60 -27 -95 -54 -114 -89 -209 -151 -292 -190 -80 -38
-462 -150 -512 -150 -14 0 -25 -4 -25 -10 0 -5 -6 -10 -12 -10 -7 0 -62 -19
-123 -41 -60 -23 -118 -41 -127 -42 -9 -1 -21 -11 -27 -23 -9 -21 -8 -21 19
-11 40 15 97 -4 147 -50 l41 -38 6 35 c3 19 6 47 6 61 0 25 3 26 67 32 37 4
68 5 70 3 8 -8 -18 -56 -47 -90 -18 -19 -30 -41 -28 -48 5 -14 123 102 132
130 7 22 29 28 142 38 l79 6 -39 -41 c-22 -22 -76 -59 -120 -82 -85 -44 -151
-88 -143 -96 8 -7 161 72 225 116 60 41 105 81 119 104 8 14 231 72 240 64 4
-5 -136 -116 -207 -164 -73 -49 -247 -143 -264 -143 -9 0 -16 -4 -16 -10 0 -5
-7 -10 -15 -10 -9 0 -21 -5 -28 -11 -7 -5 -51 -36 -99 -67 -48 -31 -101 -70
-118 -85 -18 -16 -34 -26 -37 -24 -2 3 0 31 6 63 20 108 9 173 -39 224 -17 18
-30 36 -30 40 0 4 -7 11 -16 14 -10 4 -13 2 -9 -7 4 -6 0 -4 -8 6 -8 9 -18 17
-22 17 -4 0 -2 -7 5 -15 10 -12 7 -18 -19 -32 -28 -16 -31 -23 -31 -64 0 -44
-2 -47 -30 -51 l-31 -5 3 119 2 119 30 26 c27 23 31 24 34 9 2 -10 -11 -37
-29 -59 l-32 -42 36 34 c28 26 37 43 37 67 0 31 0 31 98 59 53 15 143 43 200
62 63 21 111 32 124 27 13 -4 18 -2 14 4 -6 10 41 29 132 52 24 6 50 14 58 17
10 4 12 0 8 -11 -5 -14 -2 -14 25 -5 17 6 34 16 38 22 4 6 0 8 -10 4 -27 -10
-19 1 11 17 26 13 31 13 45 -2 11 -10 17 -12 17 -4 0 7 -5 12 -11 12 -21 0 5
23 50 44 77 36 221 137 285 201 86 84 126 177 166 378 11 53 14 57 33 51 l22
-6 -22 24 c-25 26 -31 52 -10 45 6 -2 11 -11 11 -20 -1 -9 3 -14 9 -10 5 3 16
-2 23 -12 8 -10 17 -15 21 -12 4 4 2 12 -4 18 -6 6 -9 18 -6 25 3 8 -6 18 -21
25 -14 7 -23 16 -20 20 3 5 -2 9 -11 9 -9 0 -14 4 -11 8 3 5 6 34 7 65 1 31 6
57 11 57 4 0 8 -4 8 -8 0 -11 48 -13 55 -2 3 6 -3 10 -14 10 -19 0 -22 13 -12
48 3 8 32 -1 52 -17z m42 2 c-7 -2 -19 -2 -25 0 -7 3 -2 5 12 5 14 0 19 -2 13
-5z m-3707 -32 c-3 -5 0 -8 7 -7 21 2 197 -108 192 -121 -2 -8 2 -10 12 -6 13
5 15 2 11 -15 -4 -15 -2 -22 8 -22 8 0 14 4 14 9 0 5 9 7 20 4 11 -3 20 -9 20
-14 0 -5 5 -9 10 -9 6 0 76 -41 156 -91 80 -49 152 -93 160 -96 27 -10 14 -21
-33 -27 -79 -12 -83 -14 -83 -53 0 -27 11 -50 50 -99 28 -35 50 -66 50 -68 0
-3 -16 -8 -35 -12 -40 -7 -40 -5 2 -109 21 -54 75 -135 95 -143 4 -2 8 -10 8
-18 0 -8 6 -14 14 -14 7 0 20 -7 27 -16 7 -9 39 -33 70 -54 l56 -39 2 -78 c1
-43 5 -81 9 -85 4 -3 62 -17 130 -31 108 -22 122 -23 117 -8 -4 9 -12 33 -18
53 -11 35 -14 37 -80 52 -85 19 -87 19 -87 2 0 -9 22 -18 64 -26 52 -10 66
-16 75 -36 15 -34 15 -33 -21 -24 -18 5 -59 14 -90 20 l-57 11 -6 47 c-3 26
-8 57 -10 68 -5 21 0 20 120 -20 l125 -41 65 -90 c49 -66 64 -96 60 -112 -5
-20 0 -22 52 -29 32 -4 65 -8 73 -10 8 -1 20 -3 27 -3 16 -1 -14 -113 -33
-124 -8 -5 -12 -12 -9 -18 4 -5 -1 -9 -9 -9 -9 0 -17 8 -17 18 -1 15 -2 15 -6
-2 -4 -15 -11 -17 -41 -12 -21 3 -47 6 -59 6 -18 0 -23 6 -23 25 0 22 4 25 34
25 37 0 67 24 42 33 -8 3 -48 9 -88 13 -40 3 -101 9 -136 13 -34 4 -64 5 -67
3 -3 -3 -5 -23 -5 -44 0 -44 -15 -55 -57 -40 -26 8 -28 13 -25 55 2 44 0 47
-25 53 -16 3 -42 10 -60 14 -36 9 -43 5 -43 -26 0 -17 7 -23 28 -26 21 -2 28
-9 30 -31 3 -27 1 -29 -25 -24 -15 3 -45 8 -65 12 l-37 6 1 103 c1 96 2 103
19 99 11 -3 19 -9 19 -13 0 -4 12 -7 28 -7 15 0 63 -10 107 -22 89 -24 157
-31 165 -16 3 5 -62 31 -144 57 -150 47 -177 60 -157 72 6 4 11 1 11 -6 0 -8
5 -6 11 5 9 14 7 21 -7 32 -11 7 -23 11 -27 8 -5 -3 -4 -9 3 -13 14 -9 5 -30
-13 -30 -6 0 -28 12 -49 27 -28 19 -35 29 -26 34 10 7 9 9 -3 9 -9 0 -22 6
-28 14 -10 12 -9 14 7 10 10 -3 25 2 33 12 12 16 12 17 -3 11 -10 -3 -20 -2
-23 3 -4 6 -13 10 -21 10 -8 0 -12 -4 -9 -10 14 -23 -15 -8 -34 18 -12 15 -24
32 -29 37 -35 44 -82 126 -77 135 4 6 3 9 -2 8 -11 -4 -131 121 -124 129 3 3
0 3 -6 -1 -13 -7 -100 35 -118 58 -5 6 -17 12 -25 12 -29 0 -90 28 -90 41 0 7
-4 13 -10 13 -5 0 -10 -4 -10 -10 0 -14 -27 -13 -32 2 -2 6 -20 11 -39 10 -70
-3 -82 18 -37 62 11 10 17 25 14 32 -13 34 42 25 159 -26 22 -10 50 -20 62
-24 11 -4 27 -13 33 -21 15 -18 46 -19 56 -2 4 6 4 9 -1 5 -10 -10 -37 11 -29
23 3 5 1 9 -5 9 -5 0 -19 15 -30 33 -18 29 -25 33 -52 29 -26 -4 -31 -2 -26
11 4 10 -1 17 -14 20 -12 3 -22 0 -26 -9 -3 -8 -17 -14 -32 -14 -19 0 -32 9
-46 33 -11 17 -20 34 -20 37 -1 19 -23 29 -77 34 -35 4 -79 11 -98 15 -33 6
-29 8 65 35 55 16 106 31 113 33 6 3 12 -2 12 -10 0 -8 4 -17 9 -19 4 -1 20
-22 35 -45 14 -24 31 -43 37 -43 5 0 8 -4 4 -9 -3 -5 0 -13 6 -17 7 -4 9 -3 6
3 -9 14 16 23 64 23 28 0 39 -4 39 -15 0 -8 4 -15 10 -15 5 0 26 -22 47 -50
20 -27 38 -48 40 -47 1 2 -3 29 -9 61 -12 54 -15 59 -75 99 -34 23 -63 48 -63
55 0 7 -4 11 -9 7 -11 -6 -273 175 -269 186 7 16 111 129 120 129 5 0 7 -4 4
-9z m4274 -72 c0 -5 5 -7 10 -4 7 4 9 -4 6 -22 -5 -26 -4 -27 9 -9 8 11 15 23
15 28 0 4 4 8 9 8 6 0 9 -9 8 -20 -1 -11 -5 -20 -9 -20 -4 0 -8 -5 -8 -12 0
-6 8 -3 20 7 11 10 17 22 14 26 -7 12 28 -1 48 -18 9 -8 14 -22 11 -31 -4 -15
-3 -15 6 -2 9 13 13 12 32 -6 l21 -21 -64 -7 c-107 -12 -203 -68 -330 -192
-64 -63 -113 -141 -133 -213 l-7 -24 30 22 c17 11 35 21 40 21 5 0 12 6 15 13
9 24 125 50 186 43 57 -7 130 -38 156 -66 14 -15 12 -17 -18 -17 -88 -1 -251
-62 -337 -124 -37 -27 -70 -49 -73 -49 -3 0 -13 7 -21 16 -9 8 -16 11 -16 6 0
-5 7 -15 15 -22 13 -11 10 -18 -23 -54 -37 -41 -129 -176 -140 -205 -9 -29
-53 -81 -66 -81 -8 0 -16 -6 -19 -14 -3 -8 -18 -23 -32 -32 -23 -15 -28 -15
-36 -3 -6 10 -9 8 -9 -11 0 -19 -3 -21 -12 -12 -7 7 -17 12 -22 12 -6 0 -4 -4
4 -10 8 -5 12 -11 10 -13 -26 -21 -216 -80 -295 -93 -22 -3 -42 -8 -44 -10
-13 -13 21 -19 102 -19 81 0 101 4 170 32 43 18 80 33 83 33 9 0 4 -68 -8
-101 -19 -56 -65 -115 -103 -134 -20 -9 -39 -15 -41 -12 -3 3 6 33 20 68 14
34 24 64 22 67 -13 12 -49 -15 -71 -52 -13 -23 -36 -53 -50 -66 l-25 -23 0 58
0 58 -47 -7 c-27 -4 -78 -10 -115 -13 -38 -3 -68 -9 -68 -14 0 -4 12 -22 26
-39 15 -17 25 -33 22 -35 -2 -2 -53 24 -113 58 l-110 61 40 8 c22 5 63 14 92
20 l52 11 -25 19 c-13 11 -24 23 -24 28 0 5 24 25 53 44 28 19 77 56 107 80
l54 46 83 -1 c46 0 83 -2 83 -5 0 -2 -23 -15 -51 -29 -49 -25 -50 -25 -44 -6
12 37 -28 24 -59 -20 -15 -22 -26 -42 -24 -44 9 -9 185 68 218 96 l35 28 -45
1 c-72 1 -77 13 -20 44 130 71 249 201 280 306 30 105 32 120 16 120 -8 0 -13
8 -12 18 2 9 -3 19 -11 22 -10 4 -5 14 17 38 16 18 41 48 56 67 l26 35 -63 1
c-35 1 -71 0 -79 -1 -23 -3 -10 7 115 89 63 42 151 113 197 157 121 118 147
134 224 134 38 0 64 -4 64 -11z m87 -260 c27 -10 83 -56 83 -68 0 -3 -26 -5
-57 -3 -50 3 -67 -1 -118 -29 -42 -22 -81 -34 -132 -40 -39 -4 -90 -17 -113
-29 -39 -20 -41 -20 -31 -2 17 33 79 80 116 91 20 5 58 24 85 41 74 48 118 58
167 39z m-1817 -174 c-1 -5 -9 -13 -20 -17 -17 -6 -18 -2 -11 30 2 9 32 -4 31
-13z m1160 -95 c-20 -13 -33 -13 -25 0 3 6 14 10 23 10 15 0 15 -2 2 -10z
m-1980 -120 c0 -5 7 -10 15 -10 23 0 18 -17 -7 -24 -35 -9 -38 -8 -38 19 0 16
6 25 15 25 8 0 15 -4 15 -10z m1138 -37 c16 -16 16 -16 0 -10 -11 4 -18 2 -18
-6 0 -7 -5 -4 -11 5 -5 10 -17 15 -27 12 -14 -5 -15 -4 -2 5 21 15 39 14 58
-6z m-2185 -40 c-8 -21 -16 -39 -18 -41 -1 -2 -17 15 -35 38 l-32 40 51 0 50
0 -16 -37z m2921 -5 c-6 -10 -4 -10 7 0 14 13 69 17 69 4 0 -4 -13 -23 -28
-41 l-28 -34 -22 37 c-26 44 -26 46 -6 46 9 0 12 -5 8 -12z m-714 -48 c-20
-12 -32 -2 -17 15 8 8 16 10 22 4 6 -7 5 -13 -5 -19z m-2051 -72 c-1 -13 -4
-33 -7 -45 -7 -22 -8 -21 -51 15 -43 36 -44 37 -20 43 13 4 36 7 52 8 22 1 27
-3 26 -21z m2711 -27 c0 -8 -92 -73 -96 -68 -1 1 -4 19 -8 40 l-7 37 56 0 c30
0 55 -4 55 -9z m-1460 -278 l0 -34 -30 33 c-19 21 -30 43 -30 62 l0 30 30 -29
c22 -21 30 -38 30 -62z"/>
<path d="M3000 5250 c0 -5 5 -10 10 -10 6 0 10 5 10 10 0 6 -4 10 -10 10 -5 0
-10 -4 -10 -10z"/>
<path d="M2845 5111 c-3 -5 -1 -12 5 -16 5 -3 10 1 10 9 0 18 -6 21 -15 7z"/>
<path d="M2916 5095 c4 -8 9 -15 13 -15 4 0 8 7 8 15 0 8 -6 15 -13 15 -8 0
-11 -6 -8 -15z"/>
<path d="M2925 4949 c-9 -14 -2 -20 14 -10 8 6 9 11 3 15 -6 3 -14 1 -17 -5z"/>
<path d="M3620 5339 c0 -5 5 -7 10 -4 6 3 10 8 10 11 0 2 -4 4 -10 4 -5 0 -10
-5 -10 -11z"/>
<path d="M3310 5090 c-9 -6 -10 -10 -3 -10 6 0 15 5 18 10 8 12 4 12 -15 0z"/>
<path d="M4380 4930 c0 -5 7 -7 15 -4 8 4 15 8 15 10 0 2 -7 4 -15 4 -8 0 -15
-4 -15 -10z"/>
<path d="M4270 4921 c0 -5 7 -17 16 -25 15 -15 34 -21 34 -11 0 3 -9 14 -20
25 -22 22 -30 25 -30 11z"/>
<path d="M2225 4840 c3 -5 10 -10 16 -10 5 0 9 5 9 10 0 6 -7 10 -16 10 -8 0
-12 -4 -9 -10z"/>
<path d="M1815 4790 c-3 -5 -1 -10 4 -10 6 0 11 5 11 10 0 6 -2 10 -4 10 -3 0
-8 -4 -11 -10z"/>
<path d="M1702 4770 c0 -14 2 -19 5 -12 2 6 2 18 0 25 -3 6 -5 1 -5 -13z"/>
<path d="M1846 4727 c3 -10 9 -15 12 -12 3 3 0 11 -7 18 -10 9 -11 8 -5 -6z"/>
<path d="M1690 4594 c0 -17 17 -36 24 -26 3 5 -1 15 -9 22 -8 7 -15 9 -15 4z"/>
<path d="M4581 4574 c0 -11 3 -14 6 -6 3 7 2 16 -1 19 -3 4 -6 -2 -5 -13z"/>
<path d="M2557 4566 c-4 -10 -1 -13 8 -9 8 3 12 9 9 14 -7 12 -11 11 -17 -5z"/>
<path d="M2646 4535 c-3 -8 -1 -15 4 -15 13 0 22 18 11 24 -5 3 -11 -1 -15 -9z"/>
<path d="M4516 4533 c-8 -20 -8 -23 4 -23 6 0 10 7 10 15 0 9 6 12 15 9 8 -4
15 -2 15 3 0 15 -38 12 -44 -4z"/>
<path d="M4490 4529 c0 -5 5 -7 10 -4 6 3 10 8 10 11 0 2 -4 4 -10 4 -5 0 -10
-5 -10 -11z"/>
<path d="M4372 4466 c-11 -24 -10 -28 1 -23 8 3 21 0 28 -6 10 -10 11 -9 2 3
-6 8 -12 24 -14 34 -4 17 -6 16 -17 -8z"/>
<path d="M4170 4463 c0 -5 7 -17 15 -27 14 -18 15 -18 21 -2 4 11 1 22 -7 27
-17 11 -29 11 -29 2z"/>
<path d="M4426 4434 c-4 -9 -4 -19 -1 -22 2 -3 7 3 11 12 4 9 4 19 1 22 -2 3
-7 -3 -11 -12z"/>
<path d="M4230 4431 c0 -6 4 -13 10 -16 6 -3 7 1 4 9 -7 18 -14 21 -14 7z"/>
<path d="M2090 4399 c0 -5 5 -7 10 -4 6 3 10 8 10 11 0 2 -4 4 -10 4 -5 0 -10
-5 -10 -11z"/>
<path d="M4700 4386 c0 -14 4 -27 8 -30 5 -3 6 8 4 25 -5 35 -12 38 -12 5z"/>
<path d="M4235 4360 c3 -5 8 -10 11 -10 2 0 4 5 4 10 0 6 -5 10 -11 10 -5 0
-7 -4 -4 -10z"/>
<path d="M4560 4340 c-8 -5 -12 -11 -9 -14 2 -3 11 -1 19 4 8 5 12 11 9 14 -2
3 -11 1 -19 -4z"/>
<path d="M4463 4315 c-3 -9 -3 -18 -1 -21 3 -3 8 4 11 16 6 23 -1 27 -10 5z"/>
<path d="M4577 4287 c-3 -8 1 -14 9 -14 8 0 14 6 14 14 0 7 -4 13 -9 13 -5 0
-11 -6 -14 -13z"/>
<path d="M2402 4255 c0 -16 2 -22 5 -12 2 9 2 23 0 30 -3 6 -5 -1 -5 -18z"/>
<path d="M1906 4245 c-9 -26 -7 -32 5 -12 6 10 9 21 6 23 -2 3 -7 -2 -11 -11z"/>
<path d="M3540 4200 c0 -5 5 -10 11 -10 5 0 7 5 4 10 -3 6 -8 10 -11 10 -2 0
-4 -4 -4 -10z"/>
<path d="M2360 4185 c0 -8 5 -15 10 -15 6 0 10 -4 10 -9 0 -6 -9 -8 -20 -6
-12 2 -18 0 -14 -6 3 -6 8 -8 12 -5 3 3 11 -2 17 -11 11 -15 13 -15 23 4 8 15
7 25 -4 41 -18 25 -34 29 -34 7z"/>
<path d="M3661 4171 l-21 -29 23 11 c12 6 23 19 23 29 0 23 -1 23 -25 -11z"/>
<path d="M3950 4190 c-9 -6 -10 -10 -3 -10 6 0 15 5 18 10 8 12 4 12 -15 0z"/>
<path d="M4245 4179 c-27 -13 -33 -19 -19 -19 11 0 24 4 30 9 5 5 18 11 29 13
11 2 16 6 10 9 -5 4 -28 -2 -50 -12z"/>
<path d="M3585 4180 c3 -5 8 -10 11 -10 2 0 4 5 4 10 0 6 -5 10 -11 10 -5 0
-7 -4 -4 -10z"/>
<path d="M2120 4160 c0 -5 7 -10 16 -10 8 0 12 5 9 10 -3 6 -10 10 -16 10 -5
0 -9 -4 -9 -10z"/>
<path d="M2458 4149 c4 -4 18 -9 32 -12 14 -2 19 -2 13 0 -7 3 -13 8 -13 12 0
4 -9 7 -20 7 -11 0 -16 -4 -12 -7z"/>
<path d="M2590 4135 c0 -8 5 -15 10 -15 6 0 10 7 10 15 0 8 -4 15 -10 15 -5 0
-10 -7 -10 -15z"/>
<path d="M2828 4127 c-4 -20 -1 -23 14 -19 22 5 23 15 4 31 -11 9 -15 7 -18
-12z"/>
<path d="M2400 4120 c0 -5 5 -10 10 -10 6 0 10 5 10 10 0 6 -4 10 -10 10 -5 0
-10 -4 -10 -10z"/>
<path d="M2350 4110 c0 -5 5 -10 10 -10 6 0 10 5 10 10 0 6 -4 10 -10 10 -5 0
-10 -4 -10 -10z"/>
<path d="M2730 4104 c0 -8 5 -12 10 -9 6 3 10 10 10 16 0 5 -4 9 -10 9 -5 0
-10 -7 -10 -16z"/>
<path d="M2770 4094 c-14 -16 -13 -17 3 -11 14 5 20 2 24 -13 3 -11 12 -20 20
-20 10 0 11 -5 5 -17 -7 -12 -4 -22 9 -36 15 -17 21 -18 34 -7 9 7 14 23 12
39 -3 14 0 34 5 44 8 15 5 17 -16 13 -14 -3 -30 -7 -35 -10 -5 -3 -12 1 -15
10 -3 8 -10 13 -15 10 -5 -4 -11 -1 -13 5 -2 7 -10 4 -18 -7z m95 -44 c3 -5 1
-10 -4 -10 -6 0 -11 5 -11 10 0 6 2 10 4 10 3 0 8 -4 11 -10z"/>
<path d="M2915 4020 c-33 -27 -64 -49 -68 -50 -5 0 -23 -16 -41 -35 l-33 -34
43 -42 c39 -38 44 -41 50 -23 11 30 36 54 48 47 6 -3 8 -3 4 1 -7 8 20 43 83
109 l37 37 -25 20 c-14 11 -28 20 -32 20 -3 -1 -33 -23 -66 -50z"/>
<path d="M2495 4010 c-3 -5 1 -10 9 -10 9 0 16 5 16 10 0 6 -4 10 -9 10 -6 0
-13 -4 -16 -10z"/>
<path d="M2546 4003 c-6 -14 -5 -15 5 -6 7 7 10 15 7 18 -3 3 -9 -2 -12 -12z"/>
<path d="M2467 3883 c3 -15 0 -25 -11 -29 -9 -3 -16 -10 -16 -16 0 -5 5 -6 10
-3 11 7 13 -18 4 -52 -4 -15 -16 -23 -42 -27 -112 -20 -114 -26 -19 -41 l62
-10 8 -55 c13 -79 24 -82 32 -7 l7 66 42 7 c22 3 52 11 66 17 l25 10 -30 7
c-16 4 -46 8 -66 9 -37 1 -37 1 -43 55 -4 30 -13 62 -21 72 -13 18 -14 18 -8
-3z"/>
<path d="M2954 3891 c-18 -5 -20 -8 -9 -18 10 -10 16 -9 26 3 15 18 10 22 -17
15z"/>
<path d="M4393 3883 c-7 -2 -13 -11 -13 -19 0 -11 7 -13 28 -8 29 7 54 24 35
24 -6 0 -17 2 -25 4 -7 3 -19 2 -25 -1z"/>
<path d="M2970 3846 c0 -9 5 -16 10 -16 6 0 10 4 10 9 0 6 -4 13 -10 16 -5 3
-10 -1 -10 -9z"/>
<path d="M4450 3821 c0 -17 12 -41 20 -41 10 0 1 38 -11 46 -5 3 -9 1 -9 -5z"/>
<path d="M1413 3653 c3 -12 0 -24 -7 -27 -6 -2 -3 -5 7 -5 9 -1 17 -7 18 -13
0 -7 4 -4 9 7 11 24 12 41 3 32 -3 -4 -12 1 -20 11 -13 16 -14 15 -10 -5z"/>
<path d="M2877 3599 c-4 -13 -7 -37 -7 -54 0 -44 -10 -52 -65 -60 -94 -14 -85
-31 27 -50 36 -7 36 -7 43 -66 11 -95 27 -88 40 15 4 32 13 59 19 61 6 2 31 9
56 16 41 11 43 13 20 20 -14 4 -41 7 -61 8 -36 1 -37 2 -44 47 -3 26 -10 56
-14 67 -7 20 -8 19 -14 -4z"/>
<path d="M1395 3550 c3 -5 8 -10 11 -10 2 0 4 5 4 10 0 6 -5 10 -11 10 -5 0
-7 -4 -4 -10z"/>
<path d="M1425 3530 c3 -5 8 -10 11 -10 2 0 4 5 4 10 0 6 -5 10 -11 10 -5 0
-7 -4 -4 -10z"/>
<path d="M2478 3518 c-6 -34 1 -48 23 -48 17 0 20 6 17 32 -4 40 -33 51 -40
16z"/>
<path d="M2117 3433 c-4 -18 -9 -46 -13 -62 -4 -26 -11 -30 -65 -41 -32 -7
-59 -16 -59 -21 0 -4 27 -11 61 -15 33 -4 62 -12 64 -18 1 -6 8 -38 15 -71 14
-67 22 -59 35 32 l7 52 55 16 c30 9 52 19 48 23 -3 4 -29 9 -57 12 l-51 5 -17
60 c-16 58 -17 59 -23 28z"/>
<path d="M2480 3370 c0 -22 4 -40 9 -40 28 0 41 14 41 46 0 30 -3 34 -25 34
-22 0 -25 -4 -25 -40z"/>
<path d="M1415 3280 c3 -5 8 -10 11 -10 2 0 4 5 4 10 0 6 -5 10 -11 10 -5 0
-7 -4 -4 -10z"/>
<path d="M1550 3235 c-36 -31 -66 -59 -68 -64 -2 -7 130 -101 143 -101 2 0 4
50 4 110 0 61 -3 110 -7 110 -4 0 -36 -25 -72 -55z"/>
<path d="M2480 3244 c0 -38 3 -45 16 -40 9 3 20 6 25 6 5 0 9 18 9 40 0 36 -2
40 -25 40 -23 0 -25 -4 -25 -46z"/>
<path d="M2882 3251 c-9 -5 -11 -19 -7 -43 5 -29 11 -35 26 -31 15 4 19 14 19
44 0 39 -11 48 -38 30z"/>
<path d="M2480 3105 c0 -31 3 -35 26 -35 20 0 25 4 20 16 -3 9 -6 24 -6 35 0
12 -7 19 -20 19 -16 0 -20 -7 -20 -35z"/>
<path d="M3056 3056 c-36 -46 -66 -88 -66 -93 0 -10 139 -335 147 -343 3 -3 3
111 2 253 -2 142 -7 260 -10 263 -3 2 -36 -34 -73 -80z"/>
<path d="M2884 3080 c3 -18 6 -37 6 -42 0 -5 10 -8 23 -6 18 2 22 9 22 38 0
31 -3 35 -29 38 -28 3 -29 2 -22 -28z"/>
<path d="M2130 3035 c0 -28 4 -35 20 -35 16 0 20 7 20 35 0 28 -4 35 -20 35
-16 0 -20 -7 -20 -35z"/>
<path d="M4385 3050 c-3 -5 -1 -10 4 -10 6 0 11 5 11 10 0 6 -2 10 -4 10 -3 0
-8 -4 -11 -10z"/>
<path d="M4460 3040 c-13 -8 -12 -10 3 -10 9 0 17 5 17 10 0 12 -1 12 -20 0z"/>
<path d="M2492 2958 c2 -36 7 -44 26 -46 20 -3 22 1 22 42 0 43 -2 46 -26 46
-23 0 -25 -3 -22 -42z"/>
<path d="M2130 2905 c0 -28 4 -35 20 -35 16 0 20 7 20 35 0 28 -4 35 -20 35
-16 0 -20 -7 -20 -35z"/>
<path d="M2905 2869 c-27 -33 -51 -64 -53 -68 -1 -5 48 -51 110 -102 167 -139
153 -130 133 -84 -9 22 -42 102 -73 177 -31 76 -59 138 -62 138 -3 0 -27 -27
-55 -61z"/>
<path d="M2490 2821 c0 -43 9 -55 34 -45 11 4 16 19 16 45 0 35 -3 39 -25 39
-22 0 -25 -4 -25 -39z"/>
<path d="M2143 2823 c-8 -2 -13 -22 -13 -44 0 -32 3 -39 20 -39 17 0 20 7 20
45 0 44 -3 48 -27 38z"/>
<path d="M2767 2692 l-57 -77 57 -12 c124 -25 304 -55 309 -51 2 3 -37 41 -88
84 -51 43 -106 91 -123 106 -16 15 -32 28 -35 28 -3 0 -31 -35 -63 -78z"/>
<path d="M2500 2650 c0 -33 3 -40 20 -40 17 0 20 7 20 40 0 33 -3 40 -20 40
-17 0 -20 -7 -20 -40z"/>
<path d="M2147 2673 c-4 -3 -7 -21 -7 -40 0 -26 4 -33 20 -33 17 0 20 7 20 40
0 38 -14 52 -33 33z"/>
<path d="M1583 2607 c-52 -40 -72 -109 -30 -106 8 0 8 2 -1 6 -10 4 -10 8 0
21 10 12 10 14 1 8 -7 -4 -13 -2 -13 3 0 17 15 13 46 -14 16 -14 33 -24 38
-22 8 3 10 127 2 134 -1 1 -20 -13 -43 -30z"/>
<path d="M2641 2518 c-28 -35 -47 -64 -42 -66 9 -3 453 56 458 61 3 3 -344 68
-358 67 -4 0 -30 -28 -58 -62z"/>
<path d="M2140 2515 c0 -28 4 -35 19 -35 14 0 20 9 23 35 4 31 1 35 -19 35
-20 0 -23 -5 -23 -35z"/>
<path d="M2507 2524 c-4 -4 -7 -20 -7 -36 0 -22 5 -28 21 -28 17 0 20 5 17 32
-3 31 -17 45 -31 32z"/>
<path d="M4438 2519 c-18 -10 -25 -39 -10 -39 5 0 14 -10 20 -22 9 -20 10 -16
9 25 -1 26 -1 47 -2 47 0 0 -8 -5 -17 -11z"/>
<path d="M1730 2499 c0 -5 5 -7 10 -4 6 3 10 8 10 11 0 2 -4 4 -10 4 -5 0 -10
-5 -10 -11z"/>
<path d="M2930 2449 c-255 -23 -595 -112 -815 -213 l-77 -36 31 -38 c51 -65
51 -65 117 -36 245 110 565 186 836 201 l116 6 4 64 3 63 -60 -1 c-33 -1 -103
-6 -155 -10z m200 -15 c0 -3 -12 -21 -26 -40 -29 -38 -37 -36 -75 18 l-20 28
60 0 c34 0 61 -3 61 -6z m-190 -23 c-5 -11 -15 -32 -20 -46 l-10 -27 -40 32
c-22 17 -40 36 -40 40 0 8 29 13 98 18 19 2 21 -1 12 -17z m-180 -15 c0 -2
-10 -22 -23 -45 l-23 -41 -43 31 c-23 17 -39 34 -36 37 9 10 125 26 125 18z
m-190 -31 c0 -5 -32 -88 -36 -94 -2 -2 -22 12 -45 30 l-42 33 49 17 c51 18 74
22 74 14z m-180 -61 c0 -3 -5 -25 -11 -49 l-11 -45 -44 32 c-24 17 -43 33 -41
35 6 5 82 32 95 32 6 1 12 -2 12 -5z m-185 -103 c-4 -23 -9 -41 -11 -41 -3 0
-24 10 -47 22 l-42 21 50 23 c27 13 51 21 53 19 2 -2 1 -22 -3 -44z"/>
<path d="M2147 2424 c-13 -13 -7 -55 8 -61 20 -7 22 -4 27 32 3 29 -18 46 -35
29z"/>
<path d="M2915 2269 c-186 -17 -455 -85 -635 -160 -55 -23 -102 -45 -104 -48
-6 -9 135 -91 145 -86 4 3 20 37 35 76 15 38 31 72 36 75 11 7 140 -78 131
-86 -10 -9 -133 -50 -133 -45 0 16 22 55 30 55 6 0 8 -5 4 -12 -5 -8 -2 -9 10
-5 10 4 23 7 29 7 12 1 -43 50 -55 50 -9 0 -42 -109 -36 -116 3 -2 31 5 63 16
46 16 60 17 67 8 6 -10 8 -9 8 2 0 9 12 20 28 26 22 8 35 28 62 92 19 45 39
82 43 82 10 0 159 -81 155 -85 -2 -2 -36 -12 -75 -23 -77 -22 -89 -16 -57 24
11 13 17 15 20 7 7 -15 30 -17 39 -4 5 10 -63 37 -71 28 -3 -3 -14 -27 -24
-54 l-19 -50 77 18 c42 10 89 21 104 24 21 4 36 22 68 80 23 41 45 77 50 80 6
3 42 -20 82 -52 l72 -58 -73 -9 c-40 -4 -75 -6 -77 -3 -9 8 20 47 34 47 7 0
10 -4 7 -10 -3 -5 3 -10 14 -10 34 0 31 14 -8 42 l-38 27 -25 -58 -25 -58 126
5 c69 2 129 7 132 11 4 3 9 41 12 84 l5 77 -71 -1 c-40 -1 -112 -5 -162 -10z"/>
<path d="M4110 2266 c0 -2 9 -6 20 -9 11 -3 18 -1 14 4 -5 9 -34 13 -34 5z"/>
<path d="M4348 2138 c9 -9 15 -9 24 0 9 9 7 12 -12 12 -19 0 -21 -3 -12 -12z"/>
<path d="M1714 2041 l-21 -39 51 -10 c28 -6 53 -9 55 -7 4 5 -52 94 -59 95 -3
0 -14 -18 -26 -39z"/>
<path d="M1801 2060 c-13 -11 -19 -20 -14 -20 6 0 18 9 28 20 23 25 17 25 -14
0z"/>
<path d="M4058 1993 c6 -2 18 -2 25 0 6 3 1 5 -13 5 -14 0 -19 -2 -12 -5z"/>
<path d="M2376 1951 c-4 -5 -2 -12 3 -15 5 -4 12 -2 15 3 4 5 2 12 -3 15 -5 4
-12 2 -15 -3z"/>
<path d="M3955 1890 c-3 -5 -1 -10 4 -10 6 0 11 5 11 10 0 6 -2 10 -4 10 -3 0
-8 -4 -11 -10z"/>
<path d="M3760 1843 c0 -6 8 -17 18 -24 16 -13 16 -13 2 6 -8 11 -16 22 -17
24 -2 2 -3 0 -3 -6z"/>
<path d="M3633 1800 c-14 -6 -23 -18 -23 -31 0 -15 -5 -19 -15 -15 -16 6 -39
-28 -31 -47 2 -7 5 -3 5 7 1 18 2 18 19 3 20 -19 34 -13 25 9 -7 18 44 67 60
57 7 -4 6 0 -2 10 -7 9 -14 17 -15 16 0 0 -11 -4 -23 -9z"/>
<path d="M3696 1785 c-3 -8 -1 -15 4 -15 6 0 10 7 10 15 0 8 -2 15 -4 15 -2 0
-6 -7 -10 -15z"/>
<path d="M3010 1726 c0 -2 7 -6 15 -10 8 -3 15 -1 15 4 0 6 -7 10 -15 10 -8 0
-15 -2 -15 -4z"/>
<path d="M3005 1470 c3 -5 8 -10 11 -10 2 0 4 5 4 10 0 6 -5 10 -11 10 -5 0
-7 -4 -4 -10z"/>
<path d="M3170 748 c0 -9 5 -20 10 -23 13 -8 13 5 0 25 -8 13 -10 13 -10 -2z"/>
<path d="M3126 4603 c-6 -14 -5 -15 5 -6 7 7 10 15 7 18 -3 3 -9 -2 -12 -12z"/>
<path d="M3115 4570 c-3 -5 -1 -10 4 -10 6 0 11 5 11 10 0 6 -2 10 -4 10 -3 0
-8 -4 -11 -10z"/>
<path d="M3100 4540 c0 -5 5 -10 10 -10 6 0 10 5 10 10 0 6 -4 10 -10 10 -5 0
-10 -4 -10 -10z"/>
<path d="M4861 4034 c0 -11 3 -14 6 -6 3 7 2 16 -1 19 -3 4 -6 -2 -5 -13z"/>
<path d="M4653 3955 c-9 -24 1 -27 15 -5 8 13 8 20 2 20 -6 0 -13 -7 -17 -15z"/>
<path d="M4645 3910 c-16 -7 -17 -9 -3 -9 9 -1 20 4 23 9 7 11 7 11 -20 0z"/>
<path d="M4907 3905 c-8 -8 -18 -11 -22 -7 -4 4 -2 -3 4 -15 6 -13 15 -23 19
-23 14 0 48 29 35 30 -6 0 -15 -4 -18 -10 -8 -13 -25 -13 -25 0 0 6 11 15 25
20 14 5 25 12 25 15 0 11 -29 4 -43 -10z"/>
<path d="M4886 3822 l-19 -25 31 19 c34 19 41 31 19 31 -7 0 -21 -12 -31 -25z"/>
<path d="M4700 3650 c0 -5 5 -10 11 -10 5 0 7 5 4 10 -3 6 -8 10 -11 10 -2 0
-4 -4 -4 -10z"/>
<path d="M4885 3610 c-3 -5 -2 -10 4 -10 5 0 13 5 16 10 3 6 2 10 -4 10 -5 0
-13 -4 -16 -10z"/>
<path d="M4940 3612 c0 -7 -6 -12 -14 -12 -14 0 -30 -29 -21 -38 3 -3 5 0 5 6
0 7 6 12 14 12 14 0 30 29 21 38 -3 3 -5 0 -5 -6z"/>
<path d="M4630 3513 c0 -5 5 -15 10 -23 8 -12 10 -11 10 8 0 12 -4 22 -10 22
-5 0 -10 -3 -10 -7z"/>
<path d="M4652 3353 c9 -2 20 -12 23 -22 3 -10 13 -18 21 -18 15 0 15 1 0 12
-9 7 -16 17 -16 24 0 6 -10 10 -22 10 -17 -1 -18 -3 -6 -6z"/>
<path d="M4720 3181 c0 -94 1 -99 20 -94 11 3 20 9 20 12 0 4 20 22 45 40 25
18 45 36 45 41 0 7 -74 65 -117 93 -10 6 -13 -14 -13 -92z"/>
<path d="M4628 3018 c9 -9 15 -9 24 0 9 9 7 12 -12 12 -19 0 -21 -3 -12 -12z"/>
<path d="M4685 3020 c-19 -8 -19 -9 2 -9 12 -1 25 4 28 9 7 12 -2 12 -30 0z"/>
<path d="M4670 2961 c0 -5 5 -13 10 -16 6 -3 10 -2 10 4 0 5 -4 13 -10 16 -5
3 -10 2 -10 -4z"/>
<path d="M4687 2899 c7 -7 15 -10 18 -7 3 3 -2 9 -12 12 -14 6 -15 5 -6 -5z"/>
<path d="M4680 2800 c0 -5 5 -10 10 -10 6 0 10 5 10 10 0 6 -4 10 -10 10 -5 0
-10 -4 -10 -10z"/>
<path d="M3850 3460 c0 -5 5 -10 10 -10 6 0 10 5 10 10 0 6 -4 10 -10 10 -5 0
-10 -4 -10 -10z"/>
<path d="M4130 3219 c0 -5 5 -7 10 -4 6 3 10 8 10 11 0 2 -4 4 -10 4 -5 0 -10
-5 -10 -11z"/>
<path d="M4000 2856 c0 -10 -5 -14 -11 -10 -7 4 -10 -1 -7 -11 1 -10 8 -20 14
-22 15 -5 26 39 14 51 -7 7 -10 4 -10 -8z"/>
<path d="M3395 2610 c-3 -5 1 -10 10 -10 9 0 13 5 10 10 -3 6 -8 10 -10 10 -2
0 -7 -4 -10 -10z"/>
<path d="M3566 2421 c-3 -5 1 -11 9 -14 9 -4 12 -1 8 9 -6 16 -10 17 -17 5z"/>
<path d="M3607 2306 c-4 -10 -1 -13 9 -9 15 6 19 23 5 23 -5 0 -11 -7 -14 -14z"/>
<path d="M3641 2204 c0 -11 3 -14 6 -6 3 7 2 16 -1 19 -3 4 -6 -2 -5 -13z"/>
<path d="M3740 2569 c0 -5 5 -7 10 -4 6 3 10 8 10 11 0 2 -4 4 -10 4 -5 0 -10
-5 -10 -11z"/>
<path d="M4710 2575 c0 -52 -1 -54 -19 -43 -16 9 -17 16 -9 40 6 16 8 32 4 35
-3 4 -6 -1 -6 -11 0 -9 -5 -14 -10 -11 -7 4 -9 -10 -6 -39 3 -30 0 -44 -6 -40
-6 4 -9 3 -6 -2 2 -5 11 -24 18 -41 15 -35 30 -43 30 -18 0 8 -4 15 -10 15 -5
0 -10 5 -10 11 0 5 4 8 8 5 12 -7 52 23 52 39 0 9 6 12 15 9 11 -4 13 -2 10 9
-4 8 1 17 11 21 15 6 14 9 -7 32 -13 14 -32 30 -41 35 -16 9 -18 4 -18 -46z
m-10 -81 c0 -8 -5 -12 -10 -9 -6 4 -8 11 -5 16 9 14 15 11 15 -7z"/>
<path d="M4798 2593 c7 -3 16 -2 19 1 4 3 -2 6 -13 5 -11 0 -14 -3 -6 -6z"/>
<path d="M4585 2380 c3 -5 11 -10 16 -10 6 0 7 5 4 10 -3 6 -11 10 -16 10 -6
0 -7 -4 -4 -10z"/>
<path d="M4572 2029 c-13 -22 -22 -42 -20 -44 2 -2 22 -1 44 2 l42 5 -17 39
c-9 21 -18 39 -21 39 -3 0 -15 -19 -28 -41z"/>
<path d="M4110 1713 c-21 -22 -22 -24 -4 -15 23 12 51 43 38 41 -5 -1 -20 -12
-34 -26z"/>
<path d="M4030 1716 c0 -9 5 -16 10 -16 6 0 10 4 10 9 0 6 -4 13 -10 16 -5 3
-10 -1 -10 -9z"/>
<path d="M3675 1600 c-3 -5 -1 -10 4 -10 6 0 11 5 11 10 0 6 -2 10 -4 10 -3 0
-8 -4 -11 -10z"/>
<path d="M3671 1554 c0 -11 3 -14 6 -6 3 7 2 16 -1 19 -3 4 -6 -2 -5 -13z"/>
<path d="M3500 1540 c0 -5 7 -10 15 -10 8 0 15 5 15 10 0 6 -7 10 -15 10 -8 0
-15 -4 -15 -10z"/>
<path d="M3417 1356 c-5 -14 10 -36 25 -36 13 0 9 27 -6 39 -10 9 -15 8 -19
-3z"/>
<path d="M3487 1309 c-4 -16 -3 -18 9 -8 7 6 11 15 8 20 -8 13 -11 11 -17 -12z"/>
<path d="M1176 2454 c-5 -13 -4 -14 7 -6 19 16 29 3 12 -15 -8 -8 -15 -22 -15
-31 1 -15 2 -15 11 1 6 9 13 15 17 13 12 -7 9 38 -2 46 -17 12 -23 10 -30 -8z"/>
<path d="M1260 2450 c-9 -6 -10 -10 -3 -10 6 0 18 -3 26 -6 8 -3 17 2 20 10 7
18 -19 22 -43 6z"/>
<path d="M1114 2409 c-8 -14 14 -19 25 -6 8 10 7 14 -5 14 -8 0 -17 -4 -20 -8z"/>
<path d="M1470 2290 c-13 -8 -12 -10 3 -10 9 0 17 5 17 10 0 12 -1 12 -20 0z"/>
<path d="M1001 2108 c0 -9 -4 -25 -7 -35 -5 -17 -5 -17 6 0 6 10 9 25 7 35 -4
15 -5 15 -6 0z"/>
<path d="M1037 2106 c-3 -8 0 -16 7 -19 6 -3 13 4 13 14 2 22 -12 25 -20 5z"/>
<path d="M1371 2054 c0 -11 3 -14 6 -6 3 7 2 16 -1 19 -3 4 -6 -2 -5 -13z"/>
<path d="M1150 2040 c19 -13 30 -13 30 0 0 6 -10 10 -22 10 -19 0 -20 -2 -8
-10z"/>
<path d="M1335 2001 c-3 -5 -1 -12 5 -16 5 -3 10 1 10 9 0 18 -6 21 -15 7z"/>
<path d="M1260 1970 c0 -12 8 -12 35 0 18 8 17 9 -7 9 -16 1 -28 -3 -28 -9z"/>
<path d="M1705 1620 c4 -6 11 -8 16 -5 14 9 11 15 -7 15 -8 0 -12 -5 -9 -10z"/>
<path d="M1680 1546 c0 -2 7 -9 15 -16 13 -11 14 -10 9 4 -5 14 -24 23 -24 12z"/>
<path d="M2300 1190 c-8 -5 -11 -12 -7 -16 4 -4 13 -2 19 4 15 15 7 24 -12 12z"/>
<path d="M4980 2410 c-13 -8 -12 -10 3 -10 9 0 17 5 17 10 0 12 -1 12 -20 0z"/>
<path d="M4952 2345 c-11 -12 -10 -15 3 -15 8 0 15 7 15 15 0 18 -2 18 -18 0z"/>
<path d="M4845 2180 c-3 -5 -1 -10 4 -10 6 0 11 5 11 10 0 6 -2 10 -4 10 -3 0
-8 -4 -11 -10z"/>
<path d="M4771 2094 c0 -11 3 -14 6 -6 3 7 2 16 -1 19 -3 4 -6 -2 -5 -13z"/>
<path d="M4910 1990 c0 -5 7 -7 15 -4 8 4 15 8 15 10 0 2 -7 4 -15 4 -8 0 -15
-4 -15 -10z"/>
<path d="M4655 1670 c3 -5 11 -10 16 -10 6 0 7 5 4 10 -3 6 -11 10 -16 10 -6
0 -7 -4 -4 -10z"/>
<path d="M4247 1471 c-17 -6 -17 -8 1 -24 16 -15 21 -15 25 -4 8 21 -6 35 -26
28z"/>
</g>
</svg>
